<svg width="25" height="25" viewBox="0 0 25 25" fill="none" xmlns="http://www.w3.org/2000/svg">
<g clip-path="url(#clip0_164_2)">
<path d="M2.19727 0.908813H22.0254C23.0394 0.908813 23.8613 1.73079 23.8613 2.74475V22.5729C23.8613 23.5868 23.0394 24.4088 22.0254 24.4088H2.19727C1.18331 24.4088 0.361328 23.5868 0.361328 22.5729V2.74475C0.361328 1.73079 1.18331 0.908813 2.19727 0.908813Z" fill="#3178C6"/>
<path d="M14.1784 19.3118V21.8472C14.5908 22.0585 15.0785 22.217 15.6415 22.3226C16.2045 22.4283 16.7978 22.4811 17.4217 22.4811C18.0295 22.4811 18.6071 22.423 19.1542 22.3068C19.7014 22.1905 20.1812 21.9991 20.5934 21.7324C21.0058 21.4656 21.3322 21.117 21.5728 20.6864C21.8133 20.256 21.9336 19.7239 21.9336 19.09C21.9336 18.6305 21.8648 18.2277 21.7274 17.8817C21.59 17.5357 21.3917 17.228 21.1326 16.9587C20.8737 16.6892 20.5631 16.4476 20.201 16.2337C19.8389 16.0198 19.4305 15.8177 18.9758 15.6276C18.6428 15.4902 18.3441 15.3569 18.0798 15.2275C17.8155 15.098 17.5908 14.966 17.4058 14.8313C17.2207 14.6966 17.078 14.554 16.9776 14.4034C16.8771 14.2529 16.8269 14.0826 16.8269 13.8924C16.8269 13.7181 16.8718 13.561 16.9617 13.421C17.0515 13.281 17.1785 13.1609 17.3424 13.0605C17.5062 12.9601 17.7071 12.8822 17.945 12.8267C18.1828 12.7713 18.4472 12.7435 18.7379 12.7435C18.9494 12.7435 19.1728 12.7594 19.408 12.7911C19.6432 12.8228 19.8798 12.8716 20.1178 12.9377C20.3556 13.0037 20.5869 13.0869 20.8116 13.1873C21.0362 13.2876 21.2437 13.4038 21.434 13.5358V11.1668C21.0481 11.019 20.6265 10.9093 20.1692 10.838C19.712 10.7667 19.1873 10.7311 18.5952 10.7311C17.9926 10.7311 17.4217 10.7958 16.8825 10.9252C16.3432 11.0546 15.8687 11.2566 15.4591 11.5313C15.0494 11.806 14.7256 12.1559 14.4877 12.5812C14.2498 13.0064 14.1308 13.5147 14.1308 14.1064C14.1308 14.8617 14.3489 15.5061 14.7851 16.0396C15.2212 16.573 15.8832 17.0247 16.7714 17.3944C17.1203 17.5371 17.4455 17.677 17.7467 17.8144C18.0481 17.9517 18.3084 18.0943 18.5278 18.2422C18.7472 18.3901 18.9203 18.5512 19.0472 18.7255C19.1741 18.8998 19.2375 19.0979 19.2375 19.3198C19.2375 19.4835 19.1978 19.6354 19.1185 19.7754C19.0393 19.9153 18.919 20.0368 18.7578 20.1398C18.5966 20.2428 18.3956 20.3233 18.1551 20.3814C17.9146 20.4395 17.6331 20.4686 17.3106 20.4686C16.7608 20.4686 16.2164 20.3722 15.6772 20.1794C15.1379 19.9866 14.6383 19.6974 14.1784 19.3118ZM9.95245 13.0023H13.2129V10.9147H4.125V13.0023H7.36952V22.2975H9.95245V13.0023Z" fill="white"/>
</g>
<defs>
<clipPath id="clip0_164_2">
<rect width="24" height="24" fill="white" transform="translate(0.111328 0.658813)"/>
</clipPath>
</defs>
</svg>
