<svg width="17" height="17" viewBox="0 0 17 17" fill="none" xmlns="http://www.w3.org/2000/svg">
<g id="moon">
<path id="Vector" d="M14.875 9.05958C14.7636 10.2653 14.3111 11.4144 13.5704 12.3723C12.8298 13.3302 11.8316 14.0574 10.6928 14.4688C9.55395 14.8802 8.3215 14.9587 7.13965 14.6951C5.95781 14.4316 4.87546 13.837 4.01925 12.9808C3.16304 12.1245 2.56838 11.0422 2.30486 9.86035C2.04133 8.67851 2.11985 7.44606 2.53121 6.30721C2.94257 5.16836 3.66976 4.17022 4.6277 3.42958C5.58564 2.68893 6.7347 2.23642 7.94042 2.125C7.23451 3.08002 6.89482 4.25669 6.98313 5.441C7.07145 6.62531 7.58191 7.73858 8.42167 8.57834C9.26142 9.4181 10.3747 9.92856 11.559 10.0169C12.7433 10.1052 13.92 9.7655 14.875 9.05958Z" stroke="black" stroke-width="2" stroke-linecap="round" stroke-linejoin="round"/>
</g>
</svg>
